<svg xmlns="http://www.w3.org/2000/svg" width="1200" height="720" viewBox="0 0 1200 720" role="img" aria-labelledby="title desc">
  <title id="title">오늘 뭐 먹지? thumbnail</title>
  <desc id="desc">A dinner recommendation app thumbnail with lunch menu and dinner suggestion panels.</desc>
  <rect width="1200" height="720" fill="#f7f2ea"/>
  <rect x="72" y="68" width="1056" height="584" rx="30" fill="#24312f"/>
  <rect x="118" y="114" width="964" height="96" rx="22" fill="#fffaf2"/>
  <text x="154" y="174" fill="#24312f" font-family="Arial, sans-serif" font-size="42" font-weight="700">오늘 뭐 먹지?</text>
  <rect x="770" y="136" width="270" height="38" rx="19" fill="#f2c46d"/>
  <text x="810" y="162" fill="#24312f" font-family="Arial, sans-serif" font-size="20" font-weight="700">급식 중복 회피</text>
  <rect x="118" y="256" width="404" height="304" rx="24" fill="#fffaf2"/>
  <rect x="142" y="284" width="148" height="26" rx="13" fill="#87b8a5"/>
  <rect x="142" y="336" width="310" height="20" rx="10" fill="#24312f" opacity="0.88"/>
  <rect x="142" y="382" width="244" height="18" rx="9" fill="#24312f" opacity="0.42"/>
  <rect x="142" y="426" width="284" height="18" rx="9" fill="#24312f" opacity="0.42"/>
  <rect x="142" y="470" width="212" height="18" rx="9" fill="#24312f" opacity="0.42"/>
  <text x="154" y="307" fill="#24312f" font-family="Arial, sans-serif" font-size="18" font-weight="700">오늘 급식</text>
  <rect x="582" y="256" width="500" height="304" rx="24" fill="#fffaf2"/>
  <rect x="614" y="292" width="176" height="28" rx="14" fill="#f2c46d"/>
  <text x="636" y="313" fill="#24312f" font-family="Arial, sans-serif" font-size="18" font-weight="700">추천 메뉴</text>
  <text x="614" y="380" fill="#24312f" font-family="Arial, sans-serif" font-size="52" font-weight="800">소고기 버섯덮밥</text>
  <rect x="616" y="424" width="340" height="18" rx="9" fill="#24312f" opacity="0.38"/>
  <rect x="616" y="462" width="276" height="18" rx="9" fill="#24312f" opacity="0.38"/>
  <circle cx="990" cy="328" r="54" fill="#87b8a5"/>
  <path d="M970 329l16 16 32-40" fill="none" stroke="#fffaf2" stroke-width="14" stroke-linecap="round" stroke-linejoin="round"/>
  <rect x="118" y="594" width="204" height="28" rx="14" fill="#87b8a5"/>
  <rect x="344" y="594" width="170" height="28" rx="14" fill="#f2c46d"/>
  <rect x="536" y="594" width="224" height="28" rx="14" fill="#fffaf2" opacity="0.32"/>
</svg>
